<?xml version="1.0" encoding="utf-8"?>
<!-- Generator: Adobe Illustrator 24.2.1, SVG Export Plug-In . SVG Version: 6.00 Build 0)  -->
<svg version="1.1" id="Calque_1" xmlns="http://www.w3.org/2000/svg" xmlns:xlink="http://www.w3.org/1999/xlink" x="0px" y="0px"
	 viewBox="0 0 485 192.7" style="enable-background:new 0 0 485 192.7;" xml:space="preserve">
<style type="text/css">
	.st0{fill:#0EA5E9;}
</style>
<g>
	<g>
		<path class="st0" d="M0,90.7l28.3-10.8v19.7L0,108.3V90.7z M9.8,95.2l7.3-2.5v95.4l-7.3-0.1C9.8,187.9,9.8,95.2,9.8,95.2z"/>
		<path class="st0" d="M33.1,78.1l8.7-3.3v113.8l-8.7-0.2V78.1z M36.2,76.9l30.5-11.6v22.5l-30.5,9.4V76.9z M36.2,123l26.3-5.7v22.2
			l-26.3,3.7V123z M36.2,168.2l30.5-1.6v22.5l-30.5-0.6V168.2z"/>
		<path class="st0" d="M94.8,54.6l8.2-3.1l29.1,138.9l-16-0.3L98.8,96.4l-15.7,93L71,189.2L94.8,54.6z M82,145l36.2-4.2V167
			L82,168.6V145z"/>
		<path class="st0" d="M206.7,12l31.6-12v192.7l-22.3-0.5V49.5l0.9,7.8l-22.6,114.9l-17.9,0.4l-18.9-96.9l0.6-9.4V191l-15.6-0.3
			V36.4l23-8.7l19.6,108L206.7,12z"/>
	</g>
</g>
<g>
	<path class="st0" d="M240.3,0l29.6,11.3l40.7,141.6l-1.6,2.8V26.1l17.3,6.6v158.2l-22.6,0.5l-42-138.1l2-2.7v141.6l-23.4,0.5
		L240.3,0L240.3,0z"/>
	<path class="st0" d="M367,48.2l8.6,3.3l25,137.9l-12.8,0.3l-16.5-95.4l-18.2,96.1l-17,0.4L367,48.2z M351.6,139.9l38,4.4v24.1
		l-38-1.7V139.9z"/>
	<path class="st0" d="M440.5,76.3l11.1,4.2v107.9l-7.5,0.2v-86.2l0.3,5l-8.9,68.6l-8.2-0.2l-10.1-74.2l0.4-6.9v94.4l-9.6,0.2V63.8
		l13.7,5.2l9.8,81.9L440.5,76.3z"/>
	<path class="st0" d="M460.7,84l7.3,2.8v101.3l-7.3,0.1V84z M463.4,85l21.6,8.2v17.2l-21.6-6.7V85z M463.4,127.6l19.1,4.1V149
		l-19.1-2.7V127.6z M463.4,169.4l21.6,1.1v17.2l-21.6,0.4V169.4z"/>
</g>
</svg>
