<?xml version="1.0" encoding="UTF-8"?>
<svg xmlns="http://www.w3.org/2000/svg" xmlns:xlink="http://www.w3.org/1999/xlink" width="4251.97" height="2834.65" viewBox="0 0 4251.97 2834.65">
<defs>
<clipPath id="clip-0">
<path clip-rule="nonzero" d="M 0.246094 0 L 4251.691406 0 L 4251.691406 2834.300781 L 0.246094 2834.300781 Z M 0.246094 0 "/>
</clipPath>
</defs>
<g clip-path="url(#clip-0)">
<path fill-rule="nonzero" fill="rgb(13.729858%, 12.159729%, 12.548828%)" fill-opacity="1" d="M 0.246094 2834.300781 L 4251.691406 2834.300781 L 4251.691406 0.00390625 L 0.246094 0.00390625 Z M 0.246094 2834.300781 "/>
</g>
<path fill-rule="nonzero" fill="rgb(13.729858%, 12.159729%, 12.548828%)" fill-opacity="1" d="M 1332.824219 1184.679688 C 1357.3125 1191.742188 1379.398438 1193.554688 1396.578125 1193.496094 C 1381.859375 1187.34375 1364.203125 1178.46875 1345.75 1165.609375 C 1332.597656 1156.445312 1321.484375 1146.941406 1312.113281 1137.824219 L 1312.621094 1143.179688 C 1313.574219 1155.679688 1313.597656 1167.304688 1313.082031 1177.941406 C 1319.167969 1180.339844 1325.726562 1182.632812 1332.824219 1184.679688 "/>
<path fill-rule="nonzero" fill="rgb(13.729858%, 12.159729%, 12.548828%)" fill-opacity="1" d="M 1300.578125 1080.5 C 1304.296875 1092.382812 1307.796875 1106.367188 1310.207031 1122.148438 C 1345.882812 1134.933594 1394.421875 1146.90625 1452.082031 1145.996094 C 1476.515625 1145.613281 1498.640625 1142.980469 1518.019531 1139.371094 C 1483.679688 1137.710938 1437.59375 1132.128906 1385.730469 1115.828125 C 1352.617188 1105.421875 1324.167969 1092.851562 1300.578125 1080.5 "/>
<path fill-rule="nonzero" fill="rgb(13.729858%, 12.159729%, 12.548828%)" fill-opacity="1" d="M 3840.539062 2037.140625 L 2066.148438 2037.140625 L 2066.148438 2089.71875 L 3840.539062 2089.71875 Z M 3840.539062 2037.140625 "/>
<path fill-rule="nonzero" fill="rgb(13.729858%, 12.159729%, 12.548828%)" fill-opacity="1" d="M 1326.925781 1192.109375 L 1326.875 1192.074219 C 1322.058594 1188.570312 1317.433594 1184.957031 1312.902344 1181.285156 C 1312.523438 1187.523438 1311.96875 1193.414062 1311.292969 1198.867188 C 1306.246094 1201.570312 1296.558594 1205.78125 1284.515625 1205.320312 C 1237.25 1221.242188 1179.128906 1246.210938 1118.707031 1286.160156 C 1068.605469 1319.289062 1029.785156 1354.207031 1000.796875 1384.363281 C 1045.199219 1357.886719 1094.707031 1330.839844 1149.308594 1304.558594 C 1205.480469 1277.523438 1259.089844 1255.132812 1308.980469 1236.492188 L 1312.542969 1234.011719 C 1308.769531 1264.492188 1300.832031 1303.953125 1283.675781 1347.746094 C 1267.453125 1389.132812 1247.753906 1422.242188 1230.609375 1446.816406 C 1254.96875 1428.253906 1295.421875 1391.898438 1321.320312 1333.660156 C 1333.214844 1306.910156 1339.113281 1282.113281 1342.085938 1262.019531 L 1342.351562 1262.882812 C 1340.617188 1248.558594 1337.5 1236.261719 1334.339844 1226.578125 C 1347.730469 1234.820312 1374.558594 1248.898438 1411.558594 1252.375 C 1443.144531 1255.34375 1468.550781 1249.3125 1483.058594 1244.722656 C 1411.902344 1240.539062 1364.226562 1218.328125 1332.824219 1196.367188 Z M 1326.925781 1192.109375 "/>
<path fill-rule="nonzero" fill="rgb(13.729858%, 12.159729%, 12.548828%)" fill-opacity="1" d="M 1141.542969 2122.484375 L 1143.402344 2117.441406 L 1144.175781 2114.882812 C 1148.523438 2104.667969 1148.527344 2104.671875 1138.789062 2102.132812 C 1107.613281 2094.011719 1076.433594 2085.890625 1045.261719 2077.769531 C 1042.824219 2077.136719 1041.027344 2076.761719 1039.617188 2076.761719 L 1035.5 2079.03125 L 1041.785156 2081.648438 C 1074.984375 2095.164062 1108.238281 2108.777344 1141.542969 2122.484375 "/>
<path fill-rule="nonzero" fill="rgb(13.729858%, 12.159729%, 12.548828%)" fill-opacity="1" d="M 1262.707031 1561.628906 C 1244.15625 1556.78125 1225.597656 1551.949219 1207.039062 1547.128906 C 1204.480469 1546.464844 1202.738281 1546.015625 1201.496094 1546.015625 C 1198.855469 1546.015625 1198.464844 1548.046875 1197.277344 1554.359375 C 1187.597656 1605.691406 1177.933594 1657.027344 1168.257812 1708.363281 C 1166.183594 1719.378906 1159.519531 1725.976562 1151.050781 1725.976562 L 1146.699219 1725.421875 C 1135.953125 1722.734375 1130.304688 1712.027344 1132.792969 1698.769531 C 1140.34375 1658.488281 1147.953125 1618.21875 1155.539062 1577.945312 C 1158.03125 1564.714844 1160.523438 1551.488281 1163.03125 1538.183594 C 1158.824219 1537.667969 1154.636719 1537.414062 1150.460938 1537.414062 C 1092.078125 1537.414062 1038.347656 1586.75 1028.257812 1653.425781 C 1021.710938 1696.671875 1030.730469 1736.078125 1054.992188 1770.875 C 1069.367188 1791.492188 1087.46875 1807.128906 1110.59375 1816.5625 C 1112.808594 1804.804688 1114.75 1794 1116.894531 1783.253906 C 1119.074219 1772.328125 1125.671875 1766.320312 1135.425781 1766.054688 L 1135.832031 1766.046875 C 1146.429688 1766.046875 1154.960938 1777.300781 1152.980469 1789.191406 C 1151.132812 1800.3125 1149.085938 1811.390625 1146.8125 1822.402344 C 1145.917969 1826.738281 1146.96875 1828.472656 1150.824219 1829.445312 C 1171.183594 1834.582031 1191.539062 1839.789062 1211.808594 1845.378906 L 1214.203125 1845.75 C 1217.402344 1845.75 1218.085938 1843.078125 1218.773438 1839.390625 C 1227.511719 1792.683594 1236.328125 1746 1245.125 1699.308594 C 1253.085938 1657.046875 1261.054688 1614.78125 1269.007812 1572.515625 C 1270.65625 1563.746094 1270.625 1563.703125 1262.707031 1561.628906 "/>
<path fill-rule="nonzero" fill="rgb(13.729858%, 12.159729%, 12.548828%)" fill-opacity="1" d="M 1775.292969 2036.5625 L 1773.628906 2036.277344 L 1772.132812 2036.632812 L 1770.269531 2040.203125 C 1765.738281 2064.960938 1761.078125 2089.691406 1756.34375 2114.398438 C 1755.871094 2116.84375 1755.894531 2118.625 1756.792969 2119.898438 L 1760.527344 2121.996094 C 1764.894531 2122.929688 1784.210938 2127.605469 1810.800781 2133.972656 C 1816.011719 2126.519531 1823.957031 2113.109375 1827.597656 2094.640625 C 1831.371094 2075.480469 1828.777344 2059.675781 1826.628906 2050.824219 C 1798.773438 2043.117188 1778.535156 2037.539062 1775.292969 2036.5625 "/>
<path fill-rule="nonzero" fill="rgb(13.729858%, 12.159729%, 12.548828%)" fill-opacity="1" d="M 1687.929688 1706.6875 C 1675.332031 1688.316406 1659.417969 1673.6875 1640.316406 1664.226562 C 1636.539062 1662.355469 1634.179688 1661.230469 1632.582031 1661.230469 C 1630.03125 1661.230469 1629.40625 1664.085938 1628.027344 1671.332031 C 1619.984375 1713.574219 1612.074219 1755.851562 1604.113281 1798.113281 L 1604.175781 1798.128906 C 1595.882812 1842.164062 1587.578125 1886.1875 1579.304688 1930.226562 C 1577.84375 1937.992188 1578.589844 1939.191406 1585.386719 1939.386719 L 1589.136719 1939.441406 C 1618.710938 1939.441406 1645.300781 1929.242188 1668.3125 1908.570312 C 1699.773438 1880.3125 1715.503906 1842.609375 1715.773438 1797.039062 C 1715.972656 1763.671875 1706.117188 1733.207031 1687.929688 1706.6875 "/>
<path fill-rule="nonzero" fill="rgb(13.729858%, 12.159729%, 12.548828%)" fill-opacity="1" d="M 1585.292969 1645.65625 C 1567.921875 1641.128906 1550.546875 1636.601562 1533.175781 1632.082031 C 1530.121094 1631.285156 1528.046875 1630.746094 1526.574219 1630.746094 C 1523.460938 1630.746094 1523.011719 1633.144531 1521.605469 1640.582031 C 1519.648438 1650.980469 1517.703125 1661.386719 1515.726562 1671.78125 C 1513.550781 1683.21875 1506.089844 1690.140625 1496.167969 1690.140625 L 1494.730469 1690.09375 C 1486.050781 1689.527344 1477.765625 1676.375 1479.636719 1665.695312 C 1481.882812 1652.816406 1484.257812 1639.964844 1486.921875 1627.199219 C 1488.011719 1621.988281 1486.652344 1619.875 1482.050781 1618.6875 C 1425.765625 1604.152344 1369.503906 1589.5 1313.265625 1574.722656 L 1310.480469 1574.304688 C 1307.53125 1574.304688 1306.085938 1576.207031 1305.316406 1580.449219 C 1300.945312 1604.53125 1296.320312 1628.546875 1291.792969 1652.589844 C 1284.757812 1689.90625 1277.730469 1727.226562 1270.699219 1764.542969 C 1265.710938 1791.019531 1260.75 1817.496094 1255.726562 1843.960938 C 1253.425781 1856.101562 1253.378906 1856.085938 1264.574219 1859.003906 C 1318.863281 1873.144531 1373.171875 1887.171875 1427.40625 1901.589844 L 1431.074219 1902.179688 C 1434.324219 1902.179688 1435.601562 1900.066406 1436.53125 1894.996094 C 1445.582031 1845.582031 1454.96875 1796.253906 1464.300781 1746.914062 C 1466.449219 1735.554688 1472.578125 1729.480469 1481.378906 1729.480469 L 1487.773438 1730.429688 C 1495.796875 1732.6875 1501.507812 1742.597656 1500.4375 1752.53125 L 1499.261719 1759.1875 C 1490.09375 1807.875 1481.003906 1856.582031 1471.636719 1905.214844 C 1470.519531 1911.019531 1471.566406 1913.160156 1476.855469 1914.441406 C 1496.261719 1919.140625 1515.570312 1924.398438 1534.917969 1929.410156 C 1536.847656 1929.910156 1538.820312 1930.21875 1541.519531 1930.765625 C 1542.296875 1926.628906 1542.917969 1923.335938 1543.539062 1920.042969 C 1559.964844 1832.851562 1576.390625 1745.65625 1592.816406 1658.464844 C 1594.761719 1648.132812 1594.761719 1648.125 1585.292969 1645.65625 "/>
<path fill-rule="nonzero" fill="rgb(13.729858%, 12.159729%, 12.548828%)" fill-opacity="1" d="M 1531.550781 769.9375 C 1488.675781 769.9375 1453.917969 803.460938 1453.917969 844.8125 C 1453.917969 886.164062 1488.675781 919.683594 1531.550781 919.683594 C 1574.425781 919.683594 1609.183594 886.164062 1609.183594 844.8125 C 1609.183594 803.460938 1574.425781 769.9375 1531.550781 769.9375 "/>
<path fill-rule="nonzero" fill="rgb(13.729858%, 12.159729%, 12.548828%)" fill-opacity="1" d="M 1888.449219 769.9375 C 1845.574219 769.9375 1810.816406 803.460938 1810.816406 844.8125 C 1810.816406 886.164062 1845.574219 919.683594 1888.449219 919.683594 C 1931.324219 919.683594 1966.082031 886.164062 1966.082031 844.8125 C 1966.082031 803.460938 1931.324219 769.9375 1888.449219 769.9375 "/>
<path fill-rule="nonzero" fill="rgb(13.729858%, 12.159729%, 12.548828%)" fill-opacity="1" d="M 1814.375 708.707031 C 1855.5 678.695312 1905.378906 659.199219 1959.640625 651.335938 C 1986.121094 647.503906 1979.492188 617.910156 1953.226562 621.71875 C 1892.308594 630.542969 1834.382812 653.632812 1788.292969 687.265625 C 1768.316406 701.839844 1794.3125 723.34375 1814.375 708.707031 "/>
<path fill-rule="nonzero" fill="rgb(13.729858%, 12.159729%, 12.548828%)" fill-opacity="1" d="M 1471.644531 628.398438 C 1445.378906 624.59375 1438.75 654.183594 1465.230469 658.023438 C 1519.492188 665.886719 1569.371094 685.378906 1610.496094 715.390625 C 1630.558594 730.023438 1656.554688 708.523438 1636.578125 693.945312 C 1590.488281 660.316406 1532.5625 637.226562 1471.644531 628.398438 "/>
<path fill-rule="nonzero" fill="rgb(100%, 100%, 100%)" fill-opacity="1" d="M 1827.597656 2094.640625 C 1823.957031 2113.109375 1816.011719 2126.519531 1810.800781 2133.972656 C 1784.214844 2127.605469 1764.894531 2122.929688 1760.527344 2121.996094 L 1756.792969 2119.898438 C 1755.894531 2118.625 1755.871094 2116.84375 1756.34375 2114.394531 C 1761.074219 2089.691406 1765.738281 2064.960938 1770.269531 2040.203125 L 1772.132812 2036.632812 L 1773.628906 2036.277344 L 1775.292969 2036.5625 C 1778.53125 2037.539062 1798.773438 2043.117188 1826.628906 2050.824219 C 1828.777344 2059.675781 1831.371094 2075.480469 1827.597656 2094.640625 M 1589.136719 1939.441406 L 1585.386719 1939.386719 C 1578.589844 1939.191406 1577.84375 1937.992188 1579.304688 1930.226562 C 1587.578125 1886.191406 1595.882812 1842.164062 1604.175781 1798.128906 L 1604.113281 1798.113281 C 1612.074219 1755.851562 1619.984375 1713.574219 1628.027344 1671.332031 C 1629.40625 1664.085938 1630.03125 1661.230469 1632.578125 1661.230469 C 1634.179688 1661.230469 1636.539062 1662.355469 1640.316406 1664.226562 C 1659.417969 1673.6875 1675.332031 1688.316406 1687.929688 1706.6875 C 1706.117188 1733.207031 1715.972656 1763.671875 1715.773438 1797.039062 C 1715.503906 1842.609375 1699.773438 1880.3125 1668.3125 1908.570312 C 1645.300781 1929.242188 1618.710938 1939.441406 1589.136719 1939.441406 M 1541.519531 1930.765625 C 1538.820312 1930.21875 1536.851562 1929.910156 1534.917969 1929.414062 C 1515.570312 1924.398438 1496.261719 1919.140625 1476.855469 1914.441406 C 1471.566406 1913.164062 1470.519531 1911.019531 1471.636719 1905.214844 C 1481.003906 1856.582031 1490.089844 1807.875 1499.261719 1759.1875 L 1500.4375 1752.53125 C 1501.507812 1742.597656 1495.796875 1732.691406 1487.773438 1730.433594 L 1481.378906 1729.480469 C 1472.578125 1729.480469 1466.449219 1735.554688 1464.300781 1746.914062 C 1454.96875 1796.253906 1445.582031 1845.582031 1436.53125 1894.996094 C 1435.601562 1900.066406 1434.324219 1902.179688 1431.074219 1902.179688 L 1427.40625 1901.589844 C 1373.171875 1887.171875 1318.863281 1873.144531 1264.574219 1859.003906 C 1253.378906 1856.085938 1253.429688 1856.101562 1255.726562 1843.960938 C 1260.746094 1817.5 1265.710938 1791.019531 1270.699219 1764.542969 C 1277.730469 1727.226562 1284.757812 1689.90625 1291.792969 1652.589844 C 1296.320312 1628.546875 1300.945312 1604.53125 1305.316406 1580.453125 C 1306.089844 1576.207031 1307.53125 1574.304688 1310.480469 1574.304688 L 1313.265625 1574.722656 C 1369.503906 1589.5 1425.765625 1604.152344 1482.050781 1618.6875 C 1486.652344 1619.875 1488.011719 1621.988281 1486.921875 1627.199219 C 1484.257812 1639.964844 1481.882812 1652.816406 1479.636719 1665.695312 C 1477.765625 1676.375 1486.050781 1689.527344 1494.730469 1690.09375 L 1496.167969 1690.140625 C 1506.089844 1690.140625 1513.550781 1683.21875 1515.726562 1671.78125 C 1517.703125 1661.386719 1519.648438 1650.980469 1521.605469 1640.582031 C 1523.011719 1633.144531 1523.460938 1630.75 1526.570312 1630.75 C 1528.046875 1630.75 1530.121094 1631.285156 1533.175781 1632.082031 C 1550.550781 1636.601562 1567.921875 1641.125 1585.292969 1645.660156 C 1594.761719 1648.125 1594.765625 1648.132812 1592.816406 1658.464844 C 1576.390625 1745.65625 1559.964844 1832.851562 1543.539062 1920.042969 C 1542.917969 1923.335938 1542.296875 1926.628906 1541.519531 1930.765625 M 1218.773438 1839.390625 C 1218.085938 1843.078125 1217.402344 1845.75 1214.203125 1845.75 L 1211.808594 1845.378906 C 1191.539062 1839.792969 1171.183594 1834.582031 1150.824219 1829.445312 C 1146.96875 1828.476562 1145.917969 1826.742188 1146.8125 1822.402344 C 1149.085938 1811.390625 1151.132812 1800.3125 1152.980469 1789.191406 C 1154.960938 1777.300781 1146.429688 1766.046875 1135.832031 1766.046875 L 1135.425781 1766.054688 C 1125.671875 1766.320312 1119.074219 1772.328125 1116.894531 1783.253906 C 1114.75 1794 1112.808594 1804.808594 1110.59375 1816.5625 C 1087.46875 1807.128906 1069.367188 1791.492188 1054.992188 1770.875 C 1030.730469 1736.078125 1021.710938 1696.671875 1028.257812 1653.425781 C 1038.347656 1586.75 1092.078125 1537.414062 1150.460938 1537.414062 C 1154.636719 1537.414062 1158.824219 1537.667969 1163.03125 1538.179688 C 1160.523438 1551.488281 1158.03125 1564.714844 1155.539062 1577.945312 C 1147.953125 1618.21875 1140.34375 1658.488281 1132.792969 1698.769531 C 1130.304688 1712.027344 1135.953125 1722.734375 1146.699219 1725.421875 L 1151.050781 1725.976562 C 1159.519531 1725.976562 1166.183594 1719.378906 1168.257812 1708.363281 C 1177.933594 1657.027344 1187.597656 1605.691406 1197.277344 1554.359375 C 1198.464844 1548.046875 1198.855469 1546.015625 1201.496094 1546.015625 C 1202.738281 1546.015625 1204.480469 1546.464844 1207.039062 1547.128906 C 1225.597656 1551.949219 1244.15625 1556.78125 1262.707031 1561.628906 C 1270.625 1563.703125 1270.65625 1563.746094 1269.007812 1572.515625 C 1261.054688 1614.78125 1253.085938 1657.046875 1245.125 1699.308594 C 1236.328125 1746 1227.511719 1792.683594 1218.773438 1839.390625 M 1039.617188 2076.761719 C 1041.027344 2076.761719 1042.824219 2077.136719 1045.261719 2077.769531 C 1076.4375 2085.890625 1107.613281 2094.011719 1138.789062 2102.132812 C 1148.527344 2104.671875 1148.523438 2104.667969 1144.175781 2114.882812 L 1143.402344 2117.441406 L 1141.542969 2122.484375 C 1108.238281 2108.777344 1074.984375 2095.164062 1041.785156 2081.648438 L 1035.5 2079.03125 Z M 1871.652344 2016.085938 L 1868.511719 2012.085938 L 1862.804688 2009.714844 L 1671.128906 1964.910156 C 1674.929688 1959.875 1680.777344 1952.464844 1688.519531 1943.960938 C 1697.339844 1934.269531 1703.902344 1929.078125 1707.066406 1925.296875 C 1721.539062 1907.953125 1734.160156 1889.089844 1740.367188 1865.859375 C 1744.78125 1849.328125 1750.0625 1832.707031 1751.699219 1815.65625 C 1754.835938 1782.917969 1749.824219 1750.917969 1737.242188 1720.464844 C 1725.050781 1690.960938 1707.890625 1665.933594 1684.585938 1646.484375 C 1670.550781 1634.777344 1655.667969 1624.304688 1638.722656 1619.359375 C 1604.535156 1609.378906 1570.175781 1600.1875 1535.84375 1590.890625 C 1505.253906 1582.609375 1474.621094 1574.558594 1443.980469 1566.550781 C 1422.570312 1560.957031 1401.089844 1555.714844 1379.679688 1550.121094 C 1349.050781 1542.125 1318.460938 1533.898438 1287.832031 1525.871094 C 1271.527344 1521.597656 1255.195312 1517.433594 1238.84375 1513.421875 C 1218.554688 1508.441406 1198.230469 1503.679688 1177.921875 1498.8125 C 1168.691406 1496.601562 1159.515625 1495.578125 1150.410156 1495.578125 C 1135.40625 1495.578125 1120.59375 1498.355469 1106.019531 1503.175781 C 1068.925781 1515.441406 1039.179688 1539.777344 1017.359375 1575.425781 C 1002.113281 1600.347656 993.351562 1628.40625 990.667969 1658.921875 C 986.402344 1707.488281 997.441406 1751.523438 1023.269531 1791.277344 L 1025.953125 1794.097656 L 1024.78125 1796.058594 L 1018.808594 1794.960938 C 998.269531 1789.644531 977.804688 1783.851562 957.179688 1779.035156 C 951.511719 1777.714844 945.941406 1777.066406 940.523438 1777.066406 C 916.664062 1777.0625 895.621094 1789.589844 881.253906 1812.105469 C 873.023438 1825 868.457031 1840.296875 868.285156 1857.503906 C 867.933594 1893.128906 883.664062 1917.355469 908.957031 1936.101562 C 914.996094 1940.578125 920.882812 1945.507812 926.207031 1950.996094 C 938.164062 1963.332031 940.664062 1978.832031 935.480469 1995.074219 C 931.304688 2008.160156 926.515625 2020.976562 921.71875 2033.800781 C 920.113281 2038.085938 915.316406 2051.09375 915.316406 2051.09375 C 799.320312 2123.394531 761.101562 2247 804.691406 2325.246094 C 838.953125 2386.75 914.851562 2404.265625 934.117188 2408.160156 C 1002.628906 2426.261719 1071.144531 2444.363281 1139.664062 2462.46875 L 1142.769531 2462.546875 C 1169.605469 2462.546875 1190.140625 2445.355469 1192.074219 2426.453125 C 1193.980469 2407.859375 1177.242188 2393.957031 1175.394531 2392.464844 L 1178.882812 2392.589844 C 1195.835938 2392.589844 1210.796875 2384.058594 1216.398438 2371.527344 C 1223.1875 2356.34375 1216.109375 2335.578125 1198.277344 2324.515625 C 1202.164062 2325.601562 1206.132812 2326.128906 1210.066406 2326.128906 C 1223.289062 2326.128906 1236.058594 2320.167969 1243.507812 2309.542969 C 1254.203125 2294.285156 1251.738281 2272.53125 1236.808594 2258.925781 L 1294.277344 2284.527344 C 1303.226562 2291.847656 1313.972656 2295.214844 1324.433594 2295.214844 C 1338.976562 2295.214844 1352.957031 2288.699219 1360.753906 2277.234375 C 1372.847656 2259.445312 1367.929688 2232.847656 1347.347656 2218.914062 C 1349.554688 2216.582031 1352.753906 2212.558594 1354.535156 2206.835938 C 1355.257812 2204.519531 1358.496094 2191.027344 1350.496094 2181.894531 C 1347.425781 2178.394531 1342.546875 2176.25 1337.929688 2176.25 C 1334.78125 2176.25 1331.757812 2177.25 1329.511719 2179.492188 C 1324.046875 2184.949219 1319.410156 2191.683594 1315.277344 2198.574219 C 1309.871094 2194.355469 1303.925781 2190.507812 1297.457031 2187.175781 C 1282.617188 2180.964844 1267.722656 2174.769531 1252.847656 2168.570312 C 1256.390625 2159.132812 1259.949219 2149.703125 1263.652344 2140.34375 L 1269.425781 2136.367188 L 1270.199219 2136.261719 L 1274.71875 2137.542969 C 1348.96875 2156.882812 1423.199219 2176.296875 1497.492188 2195.410156 C 1502.644531 2196.734375 1519.546875 2200.667969 1524.714844 2201.375 L 1527.996094 2201.605469 C 1541.988281 2201.605469 1547.257812 2188.191406 1544.890625 2176.316406 C 1543.507812 2169.386719 1532.824219 2159.425781 1523.609375 2158.722656 C 1499.394531 2152.101562 1463.421875 2144.496094 1439.148438 2138.171875 C 1384.277344 2123.875 1329.390625 2109.65625 1274.511719 2095.421875 C 1268.984375 2093.988281 1263.445312 2092.589844 1257.894531 2091.296875 L 1254.636719 2090.929688 C 1248.140625 2090.929688 1241.261719 2095.054688 1238.695312 2101.484375 C 1233.234375 2115.191406 1228.316406 2129.179688 1223.035156 2142.984375 C 1221.582031 2146.777344 1220.070312 2150.542969 1218.570312 2154.3125 C 1204.523438 2148.484375 1190.519531 2142.71875 1176.496094 2136.925781 C 1181.320312 2124.015625 1186.117188 2111.089844 1190.902344 2098.160156 C 1195.027344 2087 1188.78125 2073.488281 1177.761719 2070.515625 C 1152.75 2063.769531 1127.667969 2057.394531 1102.613281 2050.863281 C 1078.351562 2044.535156 1054.101562 2038.136719 1029.816406 2031.933594 L 1025.132812 2031.324219 C 1017.148438 2031.324219 1010.785156 2036.898438 1007.644531 2045.972656 C 1005.097656 2053.332031 1002.417969 2060.640625 999.710938 2067.925781 C 989.574219 2063.476562 979.4375 2059.023438 969.304688 2054.570312 C 972.933594 2044.714844 976.890625 2030.863281 978.066406 2014.003906 C 979.191406 1997.875 982.34375 1952.769531 954.796875 1925.894531 C 949.058594 1920.296875 942.515625 1914.019531 924.34375 1898.539062 C 908.238281 1884.824219 902.5 1872.53125 905.601562 1849.820312 C 907.734375 1834.242188 923.101562 1819.4375 937.136719 1818.480469 L 941.039062 1818.34375 C 945.128906 1818.34375 949.273438 1818.789062 953.210938 1819.816406 C 1209.941406 1886.558594 1466.644531 1953.445312 1723.351562 2020.316406 L 1728.089844 2021.535156 C 1731.855469 2022.136719 1732.433594 2024.292969 1731.671875 2028.234375 C 1725.003906 2062.957031 1719.195312 2097.929688 1711.738281 2132.414062 C 1705.34375 2162.007812 1689.53125 2182.574219 1661.886719 2189.210938 C 1657.839844 2190.179688 1653.800781 2190.585938 1649.777344 2190.585938 C 1641.632812 2190.585938 1633.535156 2188.921875 1625.46875 2186.917969 C 1610.4375 2183.179688 1595.488281 2178.945312 1580.433594 2175.359375 L 1576.296875 2174.921875 C 1567.183594 2174.917969 1554.171875 2180.15625 1551.246094 2189.109375 C 1548.851562 2196.4375 1556.574219 2206.824219 1563.128906 2210.96875 C 1566.949219 2213.382812 1576.84375 2216.234375 1581.070312 2217.210938 C 1602.652344 2222.199219 1624.210938 2227.71875 1645.976562 2231.128906 C 1648.960938 2231.59375 1651.929688 2231.816406 1654.882812 2231.816406 C 1667.0625 2231.816406 1678.976562 2228.058594 1690.277344 2222.304688 C 1709.746094 2212.390625 1724.847656 2196.941406 1735.855469 2176.46875 C 1736.378906 2175.496094 1737.628906 2169.804688 1741.148438 2162.933594 L 1743.953125 2157.953125 C 1772.996094 2162.671875 1802.039062 2167.386719 1831.082031 2172.101562 L 1833.644531 2172.300781 L 1838.085938 2171.699219 C 1841.230469 2170.832031 1843.394531 2169.230469 1844.609375 2168.144531 C 1847.929688 2165.171875 1849.035156 2161.671875 1849.402344 2160.199219 C 1855.09375 2145.878906 1860.542969 2129.347656 1864.808594 2110.769531 C 1872.605469 2076.785156 1874.003906 2046.519531 1873.125 2022.5625 C 1873.152344 2021.0625 1872.960938 2018.644531 1871.652344 2016.085938 "/>
<path fill-rule="nonzero" fill="rgb(100%, 100%, 100%)" fill-opacity="1" d="M 1610.496094 715.386719 C 1569.375 685.378906 1519.492188 665.882812 1465.230469 658.023438 C 1438.75 654.183594 1445.378906 624.589844 1471.644531 628.398438 C 1532.5625 637.226562 1590.488281 660.316406 1636.578125 693.945312 C 1656.554688 708.523438 1630.558594 730.023438 1610.496094 715.386719 M 1531.550781 919.683594 C 1488.675781 919.683594 1453.917969 886.164062 1453.917969 844.8125 C 1453.917969 803.460938 1488.675781 769.9375 1531.550781 769.9375 C 1574.425781 769.9375 1609.183594 803.460938 1609.183594 844.8125 C 1609.183594 886.164062 1574.425781 919.683594 1531.550781 919.683594 M 1788.292969 687.265625 C 1834.382812 653.632812 1892.308594 630.542969 1953.226562 621.71875 C 1979.492188 617.910156 1986.121094 647.503906 1959.640625 651.339844 C 1905.378906 659.199219 1855.5 678.695312 1814.375 708.707031 C 1794.3125 723.34375 1768.316406 701.839844 1788.292969 687.265625 M 1888.449219 919.683594 C 1845.574219 919.683594 1810.816406 886.164062 1810.816406 844.8125 C 1810.816406 803.460938 1845.574219 769.9375 1888.449219 769.9375 C 1931.324219 769.9375 1966.082031 803.460938 1966.082031 844.8125 C 1966.082031 886.164062 1931.324219 919.683594 1888.449219 919.683594 M 1767.574219 938.285156 C 1767.574219 950.125 1768.472656 961.601562 1770.246094 972.398438 C 1770.675781 974.925781 1771.195312 977.542969 1771.8125 980.304688 C 1777.21875 981.253906 1785.597656 984.132812 1800.449219 989.324219 C 1826.667969 998.492188 1866.289062 1012.339844 1906.523438 1018.460938 C 1920.191406 1020.539062 1932.300781 1021.507812 1944.632812 1021.507812 C 1958.25 1021.507812 1970.324219 1020.335938 1984.308594 1018.980469 C 2001.441406 1017.316406 2020.863281 1015.429688 2047.460938 1015.429688 C 2054.789062 1015.429688 2062.445312 1015.578125 2070.214844 1015.863281 L 2071.082031 1015.898438 C 2074.777344 1016.035156 2080.964844 1016.269531 2088.996094 1016.269531 C 2105.128906 1016.269531 2121.464844 1015.339844 2137.550781 1013.503906 C 2145.933594 1012.546875 2154.34375 1011.335938 2162.625 1009.886719 C 2170.566406 935.125 2170.074219 859.554688 2161.152344 785.191406 C 2149.460938 687.722656 2143.59375 638.800781 2113.371094 592.835938 C 2080.339844 542.597656 2024.339844 506.203125 1946.933594 484.675781 C 1892.792969 469.617188 1829.019531 461.984375 1757.375 461.984375 C 1728.785156 461.984375 1705.507812 463.222656 1691.601562 463.960938 C 1647.460938 466.304688 1573.613281 470.226562 1499.089844 490.707031 C 1409.238281 515.390625 1346.507812 557.039062 1312.640625 614.480469 C 1280.609375 668.804688 1277.609375 733.234375 1272.164062 850.195312 C 1269.398438 909.550781 1271.03125 969.507812 1276.996094 1028.554688 L 1278.246094 1028.589844 L 1278.28125 1028.589844 C 1279.601562 1028.660156 1282.128906 1028.730469 1285.511719 1028.777344 C 1287.847656 1028.8125 1290.632812 1028.832031 1293.765625 1028.847656 C 1301.695312 1028.328125 1309.421875 1028.039062 1316.828125 1028.039062 C 1322.359375 1028.039062 1327.722656 1028.234375 1333.011719 1028.527344 C 1349.5 1028.242188 1368.382812 1027.757812 1388.007812 1026.984375 C 1423.714844 1025.582031 1461.886719 1023.234375 1492.238281 1019.519531 C 1496.398438 1018.949219 1500.421875 1018.445312 1504.457031 1017.894531 C 1526.65625 1014.683594 1548.746094 1010.960938 1570.804688 1007.058594 L 1570.988281 1007.042969 L 1570.988281 1007.039062 L 1571.53125 1006.949219 C 1599.917969 1001.4375 1628.324219 994.125 1652.058594 983.992188 C 1655.828125 968.554688 1657.648438 952.292969 1657.648438 934.667969 L 1657.613281 932.492188 L 1657.578125 930.007812 L 1657.511719 925.636719 L 1657.289062 918.246094 C 1657.199219 915.179688 1659.277344 912.449219 1662.335938 911.621094 L 1664.214844 911.367188 C 1666.652344 911.367188 1668.972656 912.609375 1670.230469 914.726562 L 1674.144531 921.316406 C 1678.371094 928.488281 1681.054688 937.5625 1682.144531 948.304688 C 1682.457031 951.628906 1682.609375 955.046875 1682.609375 958.515625 C 1682.574219 961.871094 1682.378906 965.257812 1682.074219 968.648438 L 1687.222656 966.394531 C 1694.242188 963.605469 1703.144531 961.148438 1713.316406 961.140625 L 1716.851562 961.242188 C 1725.949219 961.765625 1734.621094 964.246094 1742.601562 967.828125 C 1742.351562 964.605469 1742.175781 961.402344 1742.175781 958.28125 C 1742.175781 954.386719 1742.355469 950.90625 1742.726562 947.644531 C 1743.628906 938.582031 1745.824219 930.832031 1749.238281 924.6875 L 1751.71875 920.902344 L 1755.628906 915.738281 L 1761.222656 913 L 1763.527344 913.382812 C 1766.414062 914.363281 1768.289062 917.050781 1768.144531 920 L 1767.855469 925.945312 C 1767.664062 929.726562 1767.574219 933.640625 1767.574219 938.285156 "/>
<path fill-rule="nonzero" fill="rgb(13.729858%, 12.159729%, 12.548828%)" fill-opacity="1" d="M 2567.644531 2515.992188 L 2043.960938 2515.992188 L 2043.960938 2584.292969 L 2567.644531 2584.292969 Z M 2567.644531 2515.992188 "/>
<path fill-rule="nonzero" fill="rgb(13.729858%, 12.159729%, 12.548828%)" fill-opacity="1" d="M 3236.539062 2584.292969 L 3745.714844 2584.292969 L 3745.714844 2515.992188 L 3236.539062 2515.992188 Z M 3236.539062 2584.292969 "/>
<path fill-rule="nonzero" fill="rgb(13.729858%, 12.159729%, 12.548828%)" fill-opacity="1" d="M 3766.296875 1773.652344 L 3639.136719 1773.652344 L 3639.136719 1453.03125 L 3763.914062 1453.03125 L 3763.914062 1485.265625 L 3669.765625 1485.265625 L 3669.765625 1594.089844 L 3754.441406 1594.089844 L 3754.441406 1626.136719 L 3669.765625 1626.136719 L 3669.765625 1738.386719 L 3766.296875 1738.386719 Z M 3587.15625 1773.652344 L 3558.890625 1773.652344 L 3558.890625 1569.3125 L 3559.628906 1541.089844 L 3558.890625 1541.089844 L 3552.226562 1569.3125 L 3515.816406 1709.558594 L 3485.164062 1709.558594 L 3448.3125 1569.3125 L 3442.382812 1541.089844 L 3441.5 1541.089844 L 3442.382812 1569.3125 L 3442.382812 1773.652344 L 3417.511719 1773.652344 L 3417.511719 1453.03125 L 3448.460938 1453.03125 L 3502.777344 1664.222656 L 3557.121094 1453.03125 L 3587.15625 1453.03125 Z M 3359.1875 1773.652344 L 3343.046875 1703.121094 L 3260.144531 1703.121094 L 3244.300781 1773.652344 L 3214.855469 1773.652344 L 3287.378906 1453.03125 L 3318.472656 1453.03125 L 3391.460938 1773.652344 Z M 3177.980469 1773.652344 L 3149.710938 1773.652344 L 3068.726562 1563.664062 L 3057.339844 1530 L 3057.929688 1563.269531 L 3057.929688 1773.652344 L 3029.636719 1773.652344 L 3029.636719 1453.03125 L 3057.339844 1453.03125 L 3140.660156 1666.445312 L 3149.710938 1698.285156 L 3150.449219 1698.285156 L 3149.710938 1666.445312 L 3149.710938 1453.03125 L 3177.980469 1453.03125 Z M 2892.761719 1773.652344 L 2864.496094 1773.652344 L 2864.496094 1569.3125 L 2865.234375 1541.089844 L 2864.496094 1541.089844 L 2857.828125 1569.3125 L 2821.421875 1709.558594 L 2790.769531 1709.558594 L 2753.917969 1569.3125 L 2747.988281 1541.089844 L 2747.101562 1541.089844 L 2747.988281 1569.3125 L 2747.988281 1773.652344 L 2723.117188 1773.652344 L 2723.117188 1453.03125 L 2754.0625 1453.03125 L 2808.382812 1664.222656 L 2862.722656 1453.03125 L 2892.761719 1453.03125 Z M 2664.789062 1773.652344 L 2648.652344 1703.121094 L 2565.746094 1703.121094 L 2549.90625 1773.652344 L 2520.457031 1773.652344 L 2592.980469 1453.03125 L 2624.074219 1453.03125 L 2697.0625 1773.652344 Z M 2474.109375 1773.652344 L 2346.953125 1773.652344 L 2346.953125 1453.03125 L 2471.722656 1453.03125 L 2471.722656 1485.265625 L 2377.578125 1485.265625 L 2377.578125 1594.089844 L 2462.253906 1594.089844 L 2462.253906 1626.136719 L 2377.578125 1626.136719 L 2377.578125 1738.386719 L 2474.109375 1738.386719 Z M 2296.152344 1488.296875 L 2225.402344 1488.296875 L 2225.402344 1773.652344 L 2194.75 1773.652344 L 2194.75 1488.296875 L 2124.144531 1488.296875 L 2124.144531 1453.03125 L 2296.152344 1453.03125 Z M 3858.152344 1399.890625 C 3850.140625 1392.59375 3840.203125 1388.445312 3830.195312 1385.988281 C 3820.230469 1383.546875 3810.34375 1382.972656 3803.839844 1382.980469 C 3799.480469 1382.980469 3796.621094 1383.230469 3796.398438 1383.25 L 3795.546875 1383.332031 L 2107.742188 1383.332031 L 2106.523438 1383.164062 C 2105.578125 1383.035156 2101.472656 1382.507812 2095.570312 1382.503906 C 2084.585938 1382.511719 2068.484375 1384.335938 2054.863281 1393.125 C 2039.128906 1403.15625 2035.890625 1416.660156 2035.25 1420.550781 C 2035.25 1544.101562 2035.25 1667.652344 2035.25 1791.207031 C 2035.246094 1793.765625 2036.953125 1812.597656 2056.96875 1823.675781 C 2069.617188 1830.886719 2083.636719 1831.9375 2089.257812 1832.085938 C 2663.902344 1832.085938 3238.542969 1832.085938 3813.191406 1832.085938 C 3818.871094 1831.808594 3836.488281 1830.242188 3851.320312 1820.207031 C 3870.382812 1807.5625 3871.503906 1789.566406 3871.4375 1785.863281 L 3871.4375 1785.414062 C 3871.433594 1666.25 3871.4375 1547.085938 3871.4375 1427.917969 C 3871.351562 1423.105469 3869.992188 1410.625 3858.152344 1399.890625 "/>
<path fill-rule="nonzero" fill="rgb(13.729858%, 12.159729%, 12.548828%)" fill-opacity="1" d="M 3898.125 1427.773438 C 3898.125 1546.957031 3898.125 1666.140625 3898.125 1785.324219 L 3898.125 1785.863281 C 3898.0625 1791.597656 3897.148438 1815.683594 3869.410156 1834.539062 L 3860.363281 1827.371094 L 3869.40625 1834.539062 C 3847.488281 1849.230469 3822.722656 1851.132812 3814.765625 1851.550781 L 3814.308594 1851.574219 L 2088.589844 1851.574219 L 2088.335938 1851.566406 C 2080.226562 1851.324219 2059.941406 1849.996094 2040.59375 1839.0625 C 2009.960938 1821.414062 2008.847656 1795.84375 2008.566406 1791.683594 L 2008.5625 1791.535156 L 2008.5625 1791.410156 C 2008.558594 1667.53125 2008.558594 1543.65625 2008.558594 1419.777344 L 2008.558594 1419.1875 L 2008.65625 1418.613281 C 2009.566406 1413.335938 2013.460938 1393.871094 2037.222656 1378.503906 C 2057.542969 1365.464844 2080.808594 1363.007812 2095.570312 1363.015625 C 2102.371094 1363.015625 2107.4375 1363.523438 2110.085938 1363.84375 L 3794.144531 1363.84375 C 3795.871094 1363.707031 3798.996094 1363.492188 3803.839844 1363.492188 C 3812.363281 1363.5 3824.949219 1364.175781 3838.644531 1367.503906 C 3852.296875 1370.816406 3867.210938 1376.949219 3878.996094 1387.71875 C 3896.40625 1403.691406 3897.9375 1420.941406 3898.125 1427.605469 Z M 3878.324219 2125.28125 L 2028.363281 2125.28125 L 2028.363281 2001.578125 L 3878.324219 2001.578125 Z M 3988.917969 2203.605469 C 3988.941406 1923.234375 3988.917969 1642.863281 3988.914062 1362.492188 C 3988.914062 1296.152344 3989.074219 1229.816406 3988.890625 1163.480469 C 3988.761719 1117.132812 3961.195312 1097.414062 3897.507812 1097.414062 L 3897.484375 1097.414062 C 3748.21875 1097.421875 3599.003906 1097.425781 3449.738281 1097.425781 C 3285.070312 1097.425781 3120.347656 1097.421875 2955.675781 1097.421875 L 2955.675781 1097.15625 C 2793.566406 1097.15625 2631.496094 1097.15625 2469.390625 1097.15625 C 2315.835938 1097.15625 2162.25 1097.15625 2008.695312 1097.164062 C 1944.953125 1097.167969 1917.480469 1117.085938 1917.480469 1163.300781 C 1917.464844 1390.441406 1917.472656 1617.585938 1917.472656 1844.726562 C 1917.472656 1963.636719 1917.179688 2082.542969 1917.597656 2201.453125 C 1917.800781 2258.988281 1942.628906 2276.507812 2021.34375 2276.507812 C 2136.910156 2276.511719 2252.453125 2276.511719 2368.019531 2276.511719 C 2434.554688 2276.511719 2501.101562 2276.511719 2567.644531 2276.511719 L 2567.644531 2211.433594 L 3236.539062 2211.433594 L 3236.539062 2276.484375 C 3406.089844 2276.285156 3575.660156 2275.996094 3745.140625 2275.996094 C 3790.972656 2275.996094 3836.800781 2276.019531 3882.621094 2276.082031 C 3887.082031 2276.234375 3891.378906 2276.3125 3895.523438 2276.3125 C 3962.289062 2276.3125 3988.914062 2256.292969 3988.917969 2203.605469 "/>
<path fill-rule="nonzero" fill="rgb(13.729858%, 12.159729%, 12.548828%)" fill-opacity="1" d="M 2606.757812 1517.101562 L 2600.828125 1549.355469 L 2573.152344 1671.078125 L 2641.835938 1671.078125 L 2613.421875 1549.355469 Z M 2606.757812 1517.101562 "/>
<path fill-rule="nonzero" fill="rgb(13.729858%, 12.159729%, 12.548828%)" fill-opacity="1" d="M 3301.152344 1517.101562 L 3295.226562 1549.355469 L 3267.550781 1671.078125 L 3336.234375 1671.078125 L 3307.820312 1549.355469 Z M 3301.152344 1517.101562 "/>
<path fill-rule="nonzero" fill="rgb(100%, 100%, 100%)" fill-opacity="1" d="M 2043.960938 2515.992188 L 2567.644531 2515.992188 L 2567.644531 2584.292969 L 2043.960938 2584.292969 Z M 3217.648438 2669.996094 L 2586.535156 2669.996094 L 2586.535156 2229.214844 L 3217.648438 2229.214844 Z M 3745.714844 2584.292969 L 3236.539062 2584.292969 L 3236.539062 2515.992188 L 3745.714844 2515.992188 Z M 3882.625 2276.082031 C 3836.800781 2276.023438 3790.972656 2275.996094 3745.140625 2275.996094 C 3575.660156 2275.996094 3406.089844 2276.285156 3236.539062 2276.484375 L 3236.539062 2211.433594 L 2567.644531 2211.433594 L 2567.644531 2276.511719 C 2501.101562 2276.511719 2434.558594 2276.511719 2368.019531 2276.511719 C 2252.453125 2276.511719 2136.910156 2276.511719 2021.34375 2276.507812 C 1942.628906 2276.507812 1917.800781 2258.988281 1917.597656 2201.453125 C 1917.179688 2082.542969 1917.472656 1963.632812 1917.472656 1844.726562 C 1917.472656 1617.585938 1917.464844 1390.441406 1917.480469 1163.300781 C 1917.484375 1117.085938 1944.953125 1097.167969 2008.695312 1097.164062 C 2162.25 1097.15625 2315.835938 1097.15625 2469.390625 1097.15625 C 2631.496094 1097.15625 2793.566406 1097.15625 2955.675781 1097.15625 L 2955.675781 1097.421875 C 3120.347656 1097.421875 3285.070312 1097.425781 3449.738281 1097.425781 C 3599.003906 1097.425781 3748.21875 1097.421875 3897.484375 1097.414062 L 3897.507812 1097.414062 C 3961.195312 1097.414062 3988.761719 1117.132812 3988.890625 1163.480469 C 3989.070312 1229.816406 3988.914062 1296.152344 3988.914062 1362.492188 C 3988.917969 1642.863281 3988.941406 1923.234375 3988.917969 2203.605469 C 3988.914062 2256.292969 3962.289062 2276.3125 3895.523438 2276.3125 C 3891.378906 2276.3125 3887.082031 2276.234375 3882.625 2276.082031 M 1452.082031 1145.996094 C 1394.421875 1146.90625 1345.878906 1134.933594 1310.207031 1122.148438 C 1307.796875 1106.367188 1304.296875 1092.382812 1300.578125 1080.5 C 1324.167969 1092.851562 1352.617188 1105.421875 1385.730469 1115.828125 C 1437.59375 1132.132812 1483.679688 1137.710938 1518.019531 1139.371094 C 1498.640625 1142.980469 1476.515625 1145.613281 1452.082031 1145.996094 M 1312.621094 1143.179688 L 1312.113281 1137.824219 C 1321.484375 1146.9375 1332.597656 1156.445312 1345.75 1165.609375 C 1364.203125 1178.46875 1381.859375 1187.34375 1396.578125 1193.496094 C 1379.398438 1193.554688 1357.3125 1191.742188 1332.824219 1184.679688 C 1325.726562 1182.636719 1319.167969 1180.339844 1313.082031 1177.945312 C 1313.597656 1167.308594 1313.574219 1155.679688 1312.621094 1143.179688 M 1411.558594 1252.375 C 1374.558594 1248.898438 1347.730469 1234.820312 1334.339844 1226.578125 C 1337.5 1236.261719 1340.617188 1248.558594 1342.351562 1262.882812 L 1342.085938 1262.019531 C 1339.113281 1282.113281 1333.214844 1306.910156 1321.320312 1333.660156 C 1295.421875 1391.898438 1254.96875 1428.253906 1230.609375 1446.816406 C 1247.753906 1422.242188 1267.453125 1389.132812 1283.675781 1347.746094 C 1300.832031 1303.953125 1308.769531 1264.492188 1312.542969 1234.011719 L 1308.980469 1236.492188 C 1259.089844 1255.132812 1205.480469 1277.523438 1149.308594 1304.558594 C 1094.707031 1330.839844 1045.199219 1357.886719 1000.796875 1384.363281 C 1029.785156 1354.207031 1068.605469 1319.289062 1118.707031 1286.164062 C 1179.128906 1246.210938 1237.25 1221.242188 1284.515625 1205.320312 C 1296.558594 1205.78125 1306.246094 1201.570312 1311.292969 1198.867188 C 1311.96875 1193.414062 1312.523438 1187.523438 1312.902344 1181.285156 C 1317.433594 1184.957031 1322.058594 1188.570312 1326.875 1192.074219 L 1326.925781 1192.109375 L 1332.824219 1196.367188 C 1364.226562 1218.328125 1411.902344 1240.539062 1483.058594 1244.722656 C 1468.550781 1249.3125 1443.144531 1255.34375 1411.558594 1252.375 M 4026.675781 1163.386719 C 4026.546875 1117.066406 4004.035156 1061.847656 3897.507812 1061.847656 L 3449.738281 1061.859375 L 2993.460938 1061.859375 L 2955.675781 1061.59375 L 2361.652344 1061.59375 C 2376.058594 1007.742188 2385.164062 953.003906 2388.246094 898.316406 C 2394.265625 791.542969 2378.152344 688.703125 2340.34375 592.667969 C 2300.679688 491.894531 2245.941406 419.945312 2207.011719 377.328125 C 2187.347656 355.800781 2135.117188 298.625 2056.808594 247.015625 C 1957 181.234375 1851.140625 147.429688 1742.171875 146.546875 L 1737.847656 146.527344 C 1643.261719 146.53125 1554.386719 171.140625 1466.144531 221.761719 C 1392.523438 263.992188 1332.175781 317.308594 1283.675781 360.152344 C 1263.785156 377.726562 1193.882812 442.144531 1129.570312 533.179688 C 1091.046875 587.714844 1061.0625 642.535156 1040.441406 696.117188 C 1014.535156 763.445312 1003.238281 829.382812 1006.871094 892.09375 C 1014.175781 1018.21875 1071.988281 1111.734375 1074.449219 1115.652344 C 1088.324219 1137.707031 1104.179688 1158.546875 1121.859375 1177.980469 C 1042.195312 1225.398438 899.917969 1326.296875 881.484375 1339.414062 L 880.40625 1340.183594 L 879.367188 1341.027344 C 786.742188 1416.300781 712.011719 1454.851562 646.078125 1488.867188 C 557.261719 1534.679688 480.566406 1574.246094 393.398438 1679.203125 C 338.203125 1745.664062 164.328125 1976.679688 244.121094 2159.050781 C 261.597656 2198.984375 298.21875 2246.929688 446.59375 2326.644531 C 588.488281 2402.882812 743.542969 2460.085938 907.453125 2496.671875 L 912.015625 2497.691406 L 916.699219 2497.707031 L 977.523438 2497.894531 L 911.113281 2480.347656 C 887.132812 2475.421875 838.167969 2461.726562 799.707031 2427.414062 C 656.5625 2385.488281 545.390625 2333.824219 466.828125 2291.613281 C 320.53125 2213.007812 294.566406 2171.1875 282.429688 2143.457031 C 208.324219 1974.089844 393.316406 1743.453125 425.851562 1704.273438 C 572.894531 1527.214844 689.757812 1547.566406 906.160156 1371.691406 C 906.160156 1371.691406 1113.476562 1224.15625 1174.363281 1195.179688 C 1178.347656 1193.28125 1182.308594 1191.328125 1186.171875 1189.191406 L 1188.488281 1186.066406 C 1166.453125 1166.949219 1136.570312 1137.085938 1110.027344 1094.902344 C 1110.027344 1094.898438 1055.210938 1007.695312 1048.390625 889.859375 C 1033.945312 640.507812 1283.167969 414.988281 1311.765625 389.722656 C 1408.214844 304.515625 1541.652344 186.636719 1737.847656 186.632812 L 1741.824219 186.648438 C 1979.15625 188.574219 2137.230469 361.601562 2175.808594 403.835938 C 2198.410156 428.574219 2258.832031 498.585938 2301.472656 606.898438 C 2376.59375 797.726562 2343.789062 973.175781 2318.859375 1061.59375 L 2162.40625 1061.597656 C 2162.527344 1055.808594 2161.953125 1050.875 2161.320312 1047.195312 C 2122.21875 1044.875 2070.09375 1059.101562 2006.898438 1059.097656 C 1995.667969 1059.097656 1875.628906 1060.417969 1838.746094 1125.269531 C 1838.746094 1125.269531 1820.941406 1156.585938 1811.078125 1249.542969 C 1810.414062 1255.796875 1810.410156 1261.917969 1810.410156 1261.917969 C 1810.414062 1268.105469 1810.90625 1274.367188 1811.914062 1280.703125 L 1811.917969 1280.71875 C 1814.414062 1296.632812 1817.675781 1312.605469 1821.332031 1328.523438 L 1821.339844 1328.550781 C 1827.894531 1357.59375 1831.726562 1386.6875 1832.589844 1415.808594 L 1832.59375 1416.046875 L 1832.742188 1419.457031 L 1832.746094 1419.457031 C 1832.808594 1422.503906 1832.835938 1425.550781 1832.835938 1428.597656 C 1832.839844 1441.082031 1832.3125 1453.589844 1831.179688 1466.152344 L 1831.179688 1466.164062 C 1829.765625 1481.515625 1827.414062 1496.84375 1824.207031 1512.203125 L 1824.191406 1512.265625 C 1822.636719 1519.457031 1820.941406 1526.574219 1819.339844 1533.605469 C 1818.769531 1536.113281 1817.039062 1538.226562 1814.644531 1539.339844 C 1812.246094 1540.453125 1809.457031 1540.445312 1807.066406 1539.316406 L 1803.386719 1536.925781 L 1800.628906 1533.066406 L 1800.023438 1531.105469 C 1792.238281 1495.640625 1785.492188 1460.300781 1776.589844 1425.414062 C 1763.34375 1373.527344 1748.460938 1321.757812 1734.164062 1269.765625 L 1734.164062 1269.777344 C 1729.835938 1254.035156 1725.660156 1237.714844 1725.640625 1220.664062 C 1725.640625 1211.605469 1726.855469 1202.34375 1729.898438 1193.050781 L 1729.90625 1193.039062 C 1736.84375 1171.980469 1745.019531 1151.375 1752.570312 1130.863281 L 1752.574219 1130.855469 C 1760.511719 1109.378906 1764.039062 1087.832031 1764.039062 1066.054688 C 1764.039062 1052.910156 1762.75 1039.679688 1760.339844 1026.359375 L 1760.335938 1026.339844 L 1760.175781 1025.945312 L 1757.746094 1023.902344 C 1752.894531 1017.707031 1745.398438 1010.90625 1736.785156 1005.734375 C 1728.164062 1000.527344 1718.476562 996.972656 1709.246094 996.472656 L 1709.234375 996.472656 L 1706.71875 996.402344 C 1695.890625 996.371094 1686.179688 1000.453125 1679.917969 1003.808594 L 1674.765625 1006.726562 L 1674.765625 1006.730469 C 1644.933594 1024.097656 1606.25 1034.46875 1568.25 1041.902344 L 1567.988281 1041.949219 L 1567.300781 1042.0625 L 1567.160156 1042.074219 C 1545.054688 1045.984375 1522.828125 1049.730469 1500.402344 1052.972656 L 1500.332031 1052.984375 C 1496.121094 1053.558594 1492.050781 1054.070312 1487.96875 1054.625 L 1487.84375 1054.644531 C 1456.628906 1058.460938 1418.128906 1060.808594 1382.117188 1062.226562 C 1346.109375 1063.640625 1312.636719 1064.109375 1291.621094 1064.109375 C 1286.53125 1064.109375 1282.167969 1064.082031 1278.664062 1064.039062 C 1275.398438 1063.988281 1272.9375 1063.925781 1271.160156 1063.84375 L 1272.8125 1064.839844 C 1268.964844 1064.613281 1264.933594 1064.90625 1260.863281 1066.007812 C 1237.488281 1072.355469 1220.03125 1103.316406 1227.300781 1140.328125 C 1230.828125 1144.628906 1239.726562 1154.242188 1254.761719 1158.722656 C 1262.710938 1161.085938 1269.75 1161.234375 1274.59375 1160.925781 C 1270.421875 1165.183594 1263.59375 1170.722656 1254.761719 1171.226562 C 1242.523438 1171.925781 1234.753906 1162.5 1233.398438 1163.871094 C 1231.136719 1166.164062 1247.414062 1198.027344 1276.363281 1204.320312 C 1220.75 1216.695312 1180.546875 1229.582031 1155.246094 1238.617188 C 1137.933594 1244.796875 1121.738281 1251.382812 1103.050781 1261.128906 C 1081.972656 1272.121094 1058.214844 1287.238281 1034.835938 1308.371094 C 1016.714844 1324.753906 994.019531 1345.75 978.5625 1381.074219 C 973.507812 1392.648438 970.324219 1403.308594 968.242188 1412.296875 C 977.980469 1411.648438 987.878906 1410.714844 997.933594 1409.460938 C 1102.234375 1396.46875 1187.648438 1353.570312 1252.476562 1308.105469 C 1260.777344 1297.851562 1269.078125 1287.59375 1277.378906 1277.335938 C 1274.554688 1284.535156 1272.453125 1292.113281 1270.679688 1300.078125 C 1265.964844 1321.066406 1263.667969 1344.675781 1254.765625 1369.414062 C 1249.769531 1383.253906 1241.972656 1399.289062 1229.367188 1416.253906 C 1218.953125 1430.273438 1205.1875 1444.925781 1187.144531 1459.570312 C 1189.164062 1460.203125 1191.34375 1460.847656 1193.695312 1461.472656 C 1203.636719 1464.125 1216.316406 1466.421875 1230.261719 1466.417969 C 1244.554688 1466.414062 1260.128906 1464.03125 1275.746094 1457.21875 C 1294.960938 1448.820312 1308.746094 1436.164062 1318.988281 1422.171875 C 1329.214844 1408.195312 1335.765625 1392.898438 1340.09375 1379.785156 L 1340.285156 1379.164062 C 1365.109375 1412.871094 1397.320312 1450.449219 1438.761719 1487.628906 C 1526.824219 1566.625 1617.816406 1609.089844 1680.09375 1632.015625 C 1620.355469 1542.050781 1560.617188 1452.078125 1500.882812 1362.113281 L 1500.867188 1362.085938 C 1492.035156 1348.78125 1487.839844 1341.980469 1488.289062 1341.679688 C 1490.078125 1340.492188 1565.128906 1441.933594 1713.476562 1646.042969 C 1771.882812 1622.441406 1827.761719 1596.820312 1879.683594 1568.058594 L 1879.683594 1844.726562 L 1879.636719 1948.664062 C 1879.574219 2032.964844 1879.515625 2117.265625 1879.8125 2201.570312 C 1880.15625 2298.941406 1951.550781 2312.070312 2021.34375 2312.074219 L 2368.019531 2312.078125 L 2567.644531 2312.074219 L 2567.644531 2480.429688 L 2006.171875 2480.429688 L 2006.171875 2619.859375 L 2567.644531 2619.859375 L 2567.644531 2687.777344 L 3236.539062 2687.777344 L 3236.539062 2619.859375 L 3783.5 2619.859375 L 3783.5 2480.429688 L 3236.539062 2480.429688 L 3236.539062 2312.046875 C 3286.628906 2311.988281 3336.71875 2311.976562 3386.804688 2311.90625 C 3506.269531 2311.734375 3625.722656 2311.5625 3745.140625 2311.5625 C 3790.742188 2311.5625 3836.339844 2311.585938 3881.929688 2311.648438 C 3886.621094 2311.800781 3891.148438 2311.875 3895.523438 2311.875 C 3927.96875 2311.875 4026.695312 2311.875 4026.703125 2203.609375 L 4026.710938 1619.972656 L 4026.703125 1362.492188 L 4026.730469 1299.695312 C 4026.765625 1254.257812 4026.800781 1208.824219 4026.675781 1163.386719 "/>
<path fill-rule="nonzero" fill="rgb(100%, 100%, 100%)" fill-opacity="1" d="M 2066.148438 2037.140625 L 3840.539062 2037.140625 L 3840.539062 2089.71875 L 2066.148438 2089.71875 Z M 2028.363281 2125.285156 L 3878.324219 2125.285156 L 3878.324219 2001.578125 L 2028.363281 2001.578125 Z M 2028.363281 2125.285156 "/>
<path fill-rule="nonzero" fill="rgb(13.729858%, 12.159729%, 12.548828%)" fill-opacity="1" d="M 3217.648438 2229.214844 L 2586.535156 2229.214844 L 2586.535156 2669.996094 L 3217.648438 2669.996094 Z M 3217.648438 2229.214844 "/>
<path fill-rule="nonzero" fill="rgb(100%, 100%, 100%)" fill-opacity="1" d="M 2191.75 1776.652344 L 2191.75 1491.296875 L 2121.144531 1491.296875 L 2121.144531 1450.035156 L 2299.152344 1450.035156 L 2299.152344 1491.296875 L 2228.398438 1491.296875 L 2228.398438 1776.652344 Z M 2191.75 1776.652344 "/>
<path fill-rule="nonzero" fill="rgb(100%, 100%, 100%)" fill-opacity="1" d="M 2302.152344 1447.035156 L 2118.144531 1447.035156 L 2118.144531 1494.296875 L 2188.75 1494.296875 L 2188.75 1779.648438 L 2231.398438 1779.648438 L 2231.398438 1494.296875 L 2302.152344 1494.296875 Z M 2296.152344 1453.035156 L 2296.152344 1488.296875 L 2225.398438 1488.296875 L 2225.398438 1773.652344 L 2194.746094 1773.652344 L 2194.746094 1488.296875 L 2124.144531 1488.296875 L 2124.144531 1453.035156 Z M 2296.152344 1453.035156 "/>
<path fill-rule="nonzero" fill="rgb(100%, 100%, 100%)" fill-opacity="1" d="M 2343.953125 1776.652344 L 2343.953125 1450.035156 L 2474.722656 1450.035156 L 2474.722656 1488.265625 L 2380.578125 1488.265625 L 2380.578125 1591.089844 L 2465.253906 1591.089844 L 2465.253906 1629.132812 L 2380.578125 1629.132812 L 2380.578125 1735.386719 L 2477.109375 1735.386719 L 2477.109375 1776.652344 Z M 2343.953125 1776.652344 "/>
<path fill-rule="nonzero" fill="rgb(100%, 100%, 100%)" fill-opacity="1" d="M 2477.722656 1447.035156 L 2340.953125 1447.035156 L 2340.953125 1779.648438 L 2480.109375 1779.648438 L 2480.109375 1732.386719 L 2383.578125 1732.386719 L 2383.578125 1632.132812 L 2468.253906 1632.132812 L 2468.253906 1588.089844 L 2383.578125 1588.089844 L 2383.578125 1491.261719 L 2477.722656 1491.261719 Z M 2471.722656 1453.035156 L 2471.722656 1485.265625 L 2377.578125 1485.265625 L 2377.578125 1594.089844 L 2462.253906 1594.089844 L 2462.253906 1626.136719 L 2377.578125 1626.136719 L 2377.578125 1738.386719 L 2474.109375 1738.386719 L 2474.109375 1773.652344 L 2346.949219 1773.652344 L 2346.949219 1453.035156 Z M 2471.722656 1453.035156 "/>
<path fill-rule="nonzero" fill="rgb(100%, 100%, 100%)" fill-opacity="1" d="M 2638.054688 1668.078125 L 2610.5 1550.035156 L 2606.929688 1532.753906 L 2603.753906 1550.019531 L 2576.910156 1668.078125 Z M 2662.398438 1776.652344 L 2646.261719 1706.121094 L 2568.148438 1706.121094 L 2552.304688 1776.652344 L 2516.703125 1776.652344 L 2590.582031 1450.035156 L 2626.46875 1450.035156 L 2700.824219 1776.652344 Z M 2662.398438 1776.652344 "/>
<path fill-rule="nonzero" fill="rgb(100%, 100%, 100%)" fill-opacity="1" d="M 2580.667969 1665.078125 L 2606.675781 1550.683594 L 2606.707031 1550.5625 L 2606.726562 1550.441406 L 2607.101562 1548.410156 L 2607.546875 1550.570312 L 2607.5625 1550.644531 L 2607.582031 1550.71875 L 2634.277344 1665.078125 Z M 2628.863281 1447.035156 L 2588.1875 1447.035156 L 2587.128906 1451.710938 L 2514.605469 1772.328125 L 2512.949219 1779.648438 L 2554.707031 1779.648438 L 2555.757812 1774.964844 L 2570.546875 1709.121094 L 2643.871094 1709.121094 L 2658.941406 1774.988281 L 2660.007812 1779.648438 L 2704.582031 1779.648438 L 2702.914062 1772.320312 L 2629.925781 1451.703125 Z M 2573.152344 1671.078125 L 2641.835938 1671.078125 L 2613.421875 1549.355469 L 2606.757812 1517.101562 L 2600.828125 1549.355469 L 2573.152344 1671.078125 M 2624.074219 1453.03125 L 2697.0625 1773.652344 L 2664.789062 1773.652344 L 2648.652344 1703.121094 L 2565.746094 1703.121094 L 2549.90625 1773.652344 L 2520.457031 1773.652344 L 2592.980469 1453.03125 Z M 2624.074219 1453.03125 "/>
<path fill-rule="nonzero" fill="rgb(100%, 100%, 100%)" fill-opacity="1" d="M 2861.496094 1776.652344 L 2861.496094 1569.3125 L 2861.566406 1566.53125 L 2860.75 1570.003906 L 2823.738281 1712.558594 L 2788.453125 1712.558594 L 2750.984375 1569.957031 L 2750.988281 1776.652344 L 2720.117188 1776.652344 L 2720.117188 1450.035156 L 2756.390625 1450.035156 L 2808.382812 1652.183594 L 2860.398438 1450.035156 L 2895.761719 1450.035156 L 2895.761719 1776.652344 Z M 2861.496094 1776.652344 "/>
<path fill-rule="nonzero" fill="rgb(100%, 100%, 100%)" fill-opacity="1" d="M 2898.761719 1447.035156 L 2858.074219 1447.035156 L 2856.914062 1451.539062 L 2808.382812 1640.144531 L 2759.875 1451.539062 L 2758.714844 1447.035156 L 2717.117188 1447.035156 L 2717.117188 1779.648438 L 2753.984375 1779.648438 L 2753.984375 1593.1875 L 2784.964844 1711.085938 L 2786.140625 1715.558594 L 2826.058594 1715.558594 L 2827.226562 1711.066406 L 2858.496094 1590.617188 L 2858.496094 1779.648438 L 2898.761719 1779.648438 Z M 2892.761719 1453.035156 L 2892.761719 1773.652344 L 2864.496094 1773.652344 L 2864.496094 1569.3125 L 2865.234375 1541.089844 L 2864.496094 1541.089844 L 2857.828125 1569.3125 L 2821.421875 1709.558594 L 2790.769531 1709.558594 L 2753.917969 1569.3125 L 2747.988281 1541.089844 L 2747.101562 1541.089844 L 2747.988281 1569.3125 L 2747.988281 1773.652344 L 2723.117188 1773.652344 L 2723.117188 1453.035156 L 2754.0625 1453.035156 L 2808.382812 1664.222656 L 2862.722656 1453.035156 Z M 2892.761719 1453.035156 "/>
<path fill-rule="nonzero" fill="rgb(100%, 100%, 100%)" fill-opacity="1" d="M 3147.652344 1776.652344 L 3065.886719 1564.625 L 3060.679688 1549.234375 L 3060.929688 1563.21875 L 3060.929688 1776.652344 L 3026.636719 1776.652344 L 3026.636719 1450.035156 L 3059.386719 1450.035156 L 3143.507812 1665.488281 L 3146.972656 1677.679688 L 3146.714844 1666.515625 L 3146.714844 1450.035156 L 3180.976562 1450.035156 L 3180.976562 1776.652344 Z M 3147.652344 1776.652344 "/>
<path fill-rule="nonzero" fill="rgb(100%, 100%, 100%)" fill-opacity="1" d="M 3183.976562 1447.035156 L 3143.714844 1447.035156 L 3143.714844 1657.773438 L 3062.925781 1450.851562 L 3061.4375 1447.035156 L 3023.636719 1447.035156 L 3023.636719 1779.648438 L 3063.925781 1779.648438 L 3063.925781 1567.890625 L 3144.117188 1775.808594 L 3145.597656 1779.648438 L 3183.976562 1779.648438 Z M 3177.980469 1453.035156 L 3177.980469 1773.652344 L 3149.714844 1773.652344 L 3068.726562 1563.664062 L 3057.335938 1529.996094 L 3057.929688 1563.269531 L 3057.929688 1773.652344 L 3029.636719 1773.652344 L 3029.636719 1453.035156 L 3057.335938 1453.035156 L 3140.660156 1666.445312 L 3149.714844 1698.28125 L 3150.449219 1698.28125 L 3149.714844 1666.445312 L 3149.714844 1453.035156 Z M 3177.980469 1453.035156 "/>
<path fill-rule="nonzero" fill="rgb(100%, 100%, 100%)" fill-opacity="1" d="M 3332.453125 1668.078125 L 3304.898438 1550.035156 L 3301.324219 1532.753906 L 3298.148438 1550.019531 L 3271.308594 1668.078125 Z M 3356.796875 1776.652344 L 3340.65625 1706.121094 L 3262.542969 1706.121094 L 3246.703125 1776.652344 L 3211.101562 1776.652344 L 3284.980469 1450.035156 L 3320.863281 1450.035156 L 3395.21875 1776.652344 Z M 3356.796875 1776.652344 "/>
<path fill-rule="nonzero" fill="rgb(100%, 100%, 100%)" fill-opacity="1" d="M 3275.066406 1665.078125 L 3301.074219 1550.683594 L 3301.101562 1550.5625 L 3301.125 1550.441406 L 3301.5 1548.410156 L 3301.945312 1550.570312 L 3301.976562 1550.71875 L 3328.671875 1665.078125 Z M 3323.257812 1447.035156 L 3282.582031 1447.035156 L 3281.527344 1451.710938 L 3209.003906 1772.328125 L 3207.347656 1779.648438 L 3249.101562 1779.648438 L 3250.15625 1774.964844 L 3264.945312 1709.121094 L 3338.265625 1709.121094 L 3353.335938 1774.988281 L 3354.402344 1779.648438 L 3398.980469 1779.648438 L 3397.3125 1772.320312 L 3324.320312 1451.703125 Z M 3267.550781 1671.078125 L 3336.234375 1671.078125 L 3307.820312 1549.355469 L 3301.152344 1517.101562 L 3295.226562 1549.355469 L 3267.550781 1671.078125 M 3318.472656 1453.03125 L 3391.460938 1773.652344 L 3359.1875 1773.652344 L 3343.046875 1703.121094 L 3260.144531 1703.121094 L 3244.300781 1773.652344 L 3214.855469 1773.652344 L 3287.375 1453.03125 Z M 3318.472656 1453.03125 "/>
<path fill-rule="nonzero" fill="rgb(100%, 100%, 100%)" fill-opacity="1" d="M 3555.890625 1776.652344 L 3555.890625 1569.3125 L 3555.964844 1566.53125 L 3555.144531 1570.003906 L 3518.136719 1712.558594 L 3482.851562 1712.558594 L 3445.382812 1569.957031 L 3445.382812 1776.652344 L 3414.511719 1776.652344 L 3414.511719 1450.035156 L 3450.785156 1450.035156 L 3502.78125 1652.183594 L 3554.792969 1450.035156 L 3590.15625 1450.035156 L 3590.15625 1776.652344 Z M 3555.890625 1776.652344 "/>
<path fill-rule="nonzero" fill="rgb(100%, 100%, 100%)" fill-opacity="1" d="M 3593.15625 1447.035156 L 3552.46875 1447.035156 L 3551.308594 1451.539062 L 3502.78125 1640.144531 L 3454.269531 1451.539062 L 3453.113281 1447.035156 L 3411.511719 1447.035156 L 3411.511719 1779.648438 L 3448.382812 1779.648438 L 3448.382812 1593.1875 L 3479.363281 1711.085938 L 3480.539062 1715.558594 L 3520.457031 1715.558594 L 3521.621094 1711.066406 L 3552.890625 1590.617188 L 3552.890625 1779.648438 L 3593.15625 1779.648438 Z M 3587.15625 1453.035156 L 3587.15625 1773.652344 L 3558.890625 1773.652344 L 3558.890625 1569.3125 L 3559.628906 1541.089844 L 3558.890625 1541.089844 L 3552.226562 1569.3125 L 3515.816406 1709.558594 L 3485.164062 1709.558594 L 3448.3125 1569.3125 L 3442.382812 1541.089844 L 3441.5 1541.089844 L 3442.382812 1569.3125 L 3442.382812 1773.652344 L 3417.511719 1773.652344 L 3417.511719 1453.035156 L 3448.460938 1453.035156 L 3502.777344 1664.222656 L 3557.121094 1453.035156 Z M 3587.15625 1453.035156 "/>
<path fill-rule="nonzero" fill="rgb(100%, 100%, 100%)" fill-opacity="1" d="M 3636.140625 1776.652344 L 3636.140625 1450.035156 L 3766.910156 1450.035156 L 3766.910156 1488.265625 L 3672.765625 1488.265625 L 3672.765625 1591.089844 L 3757.441406 1591.089844 L 3757.441406 1629.132812 L 3672.765625 1629.132812 L 3672.765625 1735.386719 L 3769.296875 1735.386719 L 3769.296875 1776.652344 Z M 3636.140625 1776.652344 "/>
<path fill-rule="nonzero" fill="rgb(100%, 100%, 100%)" fill-opacity="1" d="M 3769.910156 1447.035156 L 3633.140625 1447.035156 L 3633.140625 1779.648438 L 3772.296875 1779.648438 L 3772.296875 1732.386719 L 3675.765625 1732.386719 L 3675.765625 1632.132812 L 3760.441406 1632.132812 L 3760.441406 1588.089844 L 3675.765625 1588.089844 L 3675.765625 1491.261719 L 3769.910156 1491.261719 Z M 3763.910156 1453.035156 L 3763.910156 1485.265625 L 3669.765625 1485.265625 L 3669.765625 1594.089844 L 3754.441406 1594.089844 L 3754.441406 1626.136719 L 3669.765625 1626.136719 L 3669.765625 1738.386719 L 3766.296875 1738.386719 L 3766.296875 1773.652344 L 3639.136719 1773.652344 L 3639.136719 1453.035156 Z M 3763.910156 1453.035156 "/>
<path fill-rule="nonzero" fill="rgb(100%, 100%, 100%)" fill-opacity="1" d="M 3871.4375 1785.503906 L 3871.4375 1785.863281 C 3871.503906 1789.566406 3870.382812 1807.566406 3851.320312 1820.207031 C 3836.484375 1830.242188 3818.871094 1831.808594 3813.191406 1832.085938 C 3238.546875 1832.085938 2663.902344 1832.085938 2089.257812 1832.085938 C 2083.636719 1831.9375 2069.617188 1830.886719 2056.96875 1823.671875 C 2036.953125 1812.597656 2035.246094 1793.765625 2035.25 1791.207031 C 2035.25 1667.652344 2035.25 1544.101562 2035.25 1420.550781 C 2035.890625 1416.660156 2039.128906 1403.15625 2054.863281 1393.125 C 2068.484375 1384.335938 2084.585938 1382.511719 2095.570312 1382.503906 C 2101.472656 1382.503906 2105.574219 1383.035156 2106.523438 1383.164062 L 2107.742188 1383.332031 L 3795.546875 1383.332031 L 3796.398438 1383.253906 C 3796.621094 1383.230469 3799.480469 1382.976562 3803.839844 1382.980469 C 3810.34375 1382.972656 3820.226562 1383.550781 3830.191406 1385.988281 C 3840.203125 1388.445312 3850.140625 1392.59375 3858.152344 1399.890625 C 3869.988281 1410.625 3871.351562 1423.105469 3871.4375 1427.917969 C 3871.4375 1547.085938 3871.433594 1666.25 3871.4375 1785.414062 Z M 3878.996094 1356.714844 C 3867.210938 1344.519531 3852.296875 1337.574219 3838.644531 1333.824219 C 3824.949219 1330.058594 3812.363281 1329.292969 3803.839844 1329.285156 C 3798.996094 1329.285156 3795.871094 1329.523438 3794.144531 1329.683594 L 2110.085938 1329.683594 C 2107.4375 1329.316406 2102.371094 1328.742188 2095.570312 1328.746094 C 2080.808594 1328.734375 2057.542969 1331.515625 2037.222656 1346.277344 C 2013.460938 1363.679688 2009.566406 1385.71875 2008.65625 1391.695312 L 2008.558594 1392.34375 L 2008.558594 1393.011719 C 2008.558594 1533.269531 2008.558594 1673.523438 2008.5625 1813.785156 L 2008.5625 1813.925781 L 2008.566406 1814.09375 C 2008.847656 1818.804688 2009.960938 1847.753906 2040.59375 1867.738281 C 2059.941406 1880.117188 2080.230469 1881.617188 2088.335938 1881.894531 L 2088.589844 1881.90625 L 3814.308594 1881.90625 L 3814.765625 1881.878906 C 3822.722656 1881.402344 3847.488281 1879.246094 3869.40625 1862.613281 L 3860.363281 1854.503906 L 3869.410156 1862.613281 C 3897.148438 1841.265625 3898.0625 1813.996094 3898.125 1807.5 L 3898.125 1806.890625 C 3898.125 1671.949219 3898.125 1537.003906 3898.125 1402.0625 L 3898.125 1401.875 C 3897.9375 1394.328125 3896.40625 1374.796875 3878.996094 1356.714844 "/>
</svg>
